<?xml version="1.0" encoding="UTF-8" standalone="no"?>
<!-- Created with Inkscape (http://www.inkscape.org/) -->

<svg
   xmlns:dc="http://purl.org/dc/elements/1.1/"
   xmlns:cc="http://creativecommons.org/ns#"
   xmlns:rdf="http://www.w3.org/1999/02/22-rdf-syntax-ns#"
   xmlns:svg="http://www.w3.org/2000/svg"
   xmlns="http://www.w3.org/2000/svg"
   xmlns:sodipodi="http://sodipodi.sourceforge.net/DTD/sodipodi-0.dtd"
   xmlns:inkscape="http://www.inkscape.org/namespaces/inkscape"
   width="210mm"
   height="297mm"
   viewBox="0 0 210 297"
   version="1.1"
   id="svg8"
   inkscape:version="0.92.3 (2405546, 2018-03-11)"
   sodipodi:docname="logo.svg">
  <defs
     id="defs2" />
  <sodipodi:namedview
     id="base"
     pagecolor="#ffffff"
     bordercolor="#666666"
     borderopacity="1.0"
     inkscape:pageopacity="0.0"
     inkscape:pageshadow="2"
     inkscape:zoom="0.49497475"
     inkscape:cx="579.43277"
     inkscape:cy="369.05196"
     inkscape:document-units="mm"
     inkscape:current-layer="layer1"
     showgrid="false"
     inkscape:measure-start="0,0"
     inkscape:measure-end="0,0"
     inkscape:window-width="1920"
     inkscape:window-height="1043"
     inkscape:window-x="1600"
     inkscape:window-y="0"
     inkscape:window-maximized="1" />
  <metadata
     id="metadata5">
    <rdf:RDF>
      <cc:Work
         rdf:about="">
        <dc:format>image/svg+xml</dc:format>
        <dc:type
           rdf:resource="http://purl.org/dc/dcmitype/StillImage" />
        <dc:title></dc:title>
      </cc:Work>
    </rdf:RDF>
  </metadata>
  <g
     inkscape:label="Layer 1"
     inkscape:groupmode="layer"
     id="layer1">
    <g
       id="g6163"
       inkscape:export-xdpi="96"
       inkscape:export-ydpi="96">
      <circle
         r="82.463295"
         cy="151.65219"
         cx="108.1731"
         id="path2276-6-7"
         style="opacity:1;fill:#aa0000;fill-opacity:1;stroke:#000000;stroke-width:1.71408665;stroke-miterlimit:4;stroke-dasharray:none;stroke-dashoffset:0" />
      <circle
         r="65.756622"
         cy="151.65219"
         cx="108.1731"
         id="path2276-6"
         style="opacity:1;fill:#ffffff;fill-opacity:1;stroke:#999999;stroke-width:1.08874273;stroke-miterlimit:4;stroke-dasharray:none;stroke-dashoffset:0" />
      <g
         id="g2274">
        <path
           style="fill:#000000;fill-rule:evenodd;stroke:#000000;stroke-width:1.5;stroke-linecap:butt;stroke-linejoin:miter;stroke-miterlimit:4;stroke-dasharray:none;stroke-opacity:1"
           d="m 87.218006,183.89062 2.317284,-3.95467 19.24339,3.34087 9.75536,0.4009 11.62622,-4.81085 1.46995,4.74027 -8.59896,5.29167 -4.25223,1.6064 -15.49703,-0.28348 -6.425591,-1.51191 -7.843006,-3.49628 -1.795387,-1.32292"
           id="path939"
           inkscape:connector-curvature="0" />
        <path
           style="fill:#fff6d5;fill-rule:evenodd;stroke:#000000;stroke-width:1.5;stroke-linecap:butt;stroke-linejoin:miter;stroke-miterlimit:4;stroke-dasharray:none;stroke-opacity:1"
           d="m 73.900024,141.58277 5.479026,12.56167 4.543582,8.01808 9.888972,9.62171 13.497116,3.20723 9.48806,-1.87089 11.8935,-5.61266 8.15172,-12.02712 3.20723,-13.89802 z"
           id="path888"
           inkscape:connector-curvature="0" />
        <path
           style="fill:#fff6d5;fill-rule:evenodd;stroke:#000000;stroke-width:1.5;stroke-linecap:butt;stroke-linejoin:miter;stroke-miterlimit:4;stroke-dasharray:none;stroke-opacity:1"
           d="m 74.568197,146.12635 -6.681737,-2.27179 -17.10525,-11.35895 -14.03165,-14.9671 -2.004521,2.6727 -0.133635,13.22984 2.405426,11.49259 10.022607,14.43255 7.082642,6.01357 9.488069,1.87088 8.41899,-1.33634 5.61266,-0.40091 4.009043,-5.07812 z"
           id="path890"
           inkscape:connector-curvature="0" />
        <path
           style="fill:#fff6d5;fill-rule:evenodd;stroke:#000000;stroke-width:1.5;stroke-linecap:butt;stroke-linejoin:miter;stroke-miterlimit:4;stroke-dasharray:none;stroke-opacity:1"
           d="m 134.57021,161.62798 7.08264,3.47451 4.40995,0.53454 15.36799,-1.33635 8.68626,-5.21176 7.34992,-10.15624 1.73725,-15.63527 -0.66818,-9.08716 -3.74177,-6.1472 -16.27724,14.27354 -18.16712,10.68275 -3.50791,12.46145 z"
           id="path892"
           inkscape:connector-curvature="0"
           sodipodi:nodetypes="ccccccccccccc" />
        <path
           style="fill:#b7c8b7;fill-rule:evenodd;stroke:#000000;stroke-width:1.5;stroke-linecap:butt;stroke-linejoin:miter;stroke-miterlimit:4;stroke-dasharray:none;stroke-opacity:1"
           d="m 81.650839,160.42527 9.822156,10.02261 -1.937703,9.48807 -8.285356,2.27179 -4.810851,-15.56845 z"
           id="path913"
           inkscape:connector-curvature="0" />
        <path
           style="fill:#b7c8b7;fill-rule:evenodd;stroke:#000000;stroke-width:1.5;stroke-linecap:butt;stroke-linejoin:miter;stroke-miterlimit:4;stroke-dasharray:none;stroke-opacity:1"
           d="m 71.761868,168.2429 4.677216,-1.60361 4.810852,15.56845 -5.078121,0.13363 z"
           id="path915"
           inkscape:connector-curvature="0" />
        <path
           style="fill:#fff6d5;fill-rule:evenodd;stroke:#000000;stroke-width:1.5;stroke-linecap:butt;stroke-linejoin:miter;stroke-miterlimit:4;stroke-dasharray:none;stroke-opacity:1"
           d="m 71.761868,168.2429 -5.278573,3.94223 -2.53906,4.34313 -0.06682,4.6104 2.472245,3.14042 5.87993,0.13363 3.942225,-2.07134 z"
           id="path917"
           inkscape:connector-curvature="0" />
        <path
           style="fill:#b7c8b7;fill-rule:evenodd;stroke:#000000;stroke-width:1.5;stroke-linecap:butt;stroke-linejoin:miter;stroke-miterlimit:4;stroke-dasharray:none;stroke-opacity:1"
           d="m 91.472995,170.44788 -1.937705,9.48807 19.24341,3.34087 -1.46998,-8.28536 -13.497116,-3.20723 z"
           id="path919"
           inkscape:connector-curvature="0" />
        <path
           style="fill:#b7c8b7;fill-rule:evenodd;stroke:#000000;stroke-width:1.5;stroke-linecap:butt;stroke-linejoin:miter;stroke-miterlimit:4;stroke-dasharray:none;stroke-opacity:1"
           d="m 130.16026,178.86687 -1.46998,-11.35896 -11.8935,5.61266 -8.0849,1.87089 0.0668,8.28536 9.75536,0.4009 z"
           id="path921"
           inkscape:connector-curvature="0" />
        <path
           style="fill:#b7c8b7;fill-rule:evenodd;stroke:#000000;stroke-width:1.5;stroke-linecap:butt;stroke-linejoin:miter;stroke-miterlimit:4;stroke-dasharray:none;stroke-opacity:1"
           d="m 130.16026,178.86687 10.35669,2.27179 1.1359,-16.03617 -8.61944,-3.20724 -4.34313,5.61266 1.46998,11.35896"
           id="path923"
           inkscape:connector-curvature="0" />
        <path
           style="fill:#b7c8b7;fill-rule:evenodd;stroke:#000000;stroke-width:1.5;stroke-linecap:butt;stroke-linejoin:miter;stroke-miterlimit:4;stroke-dasharray:none;stroke-opacity:1"
           d="m 146.0628,165.63703 -1.33635,17.43933 -4.2095,-1.9377 1.1359,-16.03617 z"
           id="path925"
           inkscape:connector-curvature="0" />
        <path
           style="fill:#f4eed7;fill-rule:evenodd;stroke:#000000;stroke-width:1.5;stroke-linecap:butt;stroke-linejoin:miter;stroke-miterlimit:4;stroke-dasharray:none;stroke-opacity:1"
           d="m 146.0628,165.63703 7.01582,4.27631 2.73951,6.28083 -1.73725,5.94675 -6.48128,1.73725 -2.87315,-0.80181 z"
           id="path927"
           inkscape:connector-curvature="0" />
        <path
           style="fill:#b7c8b7;fill-rule:evenodd;stroke:#000000;stroke-width:1.5;stroke-linecap:butt;stroke-linejoin:miter;stroke-miterlimit:4;stroke-dasharray:none;stroke-opacity:1"
           d="m 87.218006,183.89062 -3.401788,5.00819 19.938242,10.86681 4.06325,-4.81919 4.91369,5.76414 9.16592,-0.0945 6.80357,-5.38616 5.85863,-6.99256 -2.92931,-4.63021 -8.59896,5.29167 -4.25223,1.6064 -15.49703,-0.28348 -6.425591,-1.51191 -7.843006,-3.49628 z"
           id="path929"
           inkscape:connector-curvature="0" />
        <path
           style="fill:#eeffaa;fill-rule:evenodd;stroke:#000000;stroke-width:1.5;stroke-linecap:butt;stroke-linejoin:miter;stroke-miterlimit:4;stroke-dasharray:none;stroke-opacity:1"
           d="m 104.22693,183.89062 -0.28348,4.44122 12.47322,0.47248 -0.18899,-4.53572 z"
           id="path931"
           inkscape:connector-curvature="0" />
        <path
           style="fill:#f6ffd5;fill-rule:evenodd;stroke:#000000;stroke-width:1.5;stroke-linecap:butt;stroke-linejoin:miter;stroke-miterlimit:4;stroke-dasharray:none;stroke-opacity:1"
           d="m 88.162946,192.01711 0.850445,9.92188 4.441222,1.32291 4.252232,0.28349 0.283483,-6.4256 z"
           id="path933"
           inkscape:connector-curvature="0" />
        <path
           style="fill:#f6ffd5;fill-rule:evenodd;stroke:#000000;stroke-width:1.5;stroke-linecap:butt;stroke-linejoin:miter;stroke-miterlimit:4;stroke-dasharray:none;stroke-opacity:1"
           d="m 119.81845,201.37202 0.18899,6.99256 5.76414,0.47247 4.06324,-1.5119 -1.13393,-12.09524 -6.80357,5.38616 6.80357,-5.38616 -6.80357,5.38616 z"
           id="path935"
           inkscape:connector-curvature="0" />
        <path
           style="fill:#ac9d93;fill-rule:evenodd;stroke:#000000;stroke-width:1.5;stroke-linecap:butt;stroke-linejoin:miter;stroke-miterlimit:4;stroke-dasharray:none;stroke-opacity:1"
           d="m 120.00744,208.36458 -0.18899,7.55952 6.52009,-0.33072 4.63021,-2.26786 3.82701,-3.87426 2.45684,-7.46503 -7.41778,5.33892 -4.06324,1.5119 z"
           id="path941"
           inkscape:connector-curvature="0" />
        <path
           style="fill:#c8beb7;fill-rule:evenodd;stroke:#000000;stroke-width:1.5;stroke-linecap:butt;stroke-linejoin:miter;stroke-miterlimit:4;stroke-dasharray:none;stroke-opacity:1"
           d="m 97.706843,203.54539 0.188989,9.26041 -4.441219,-1.55915 -8.646205,-5.24442 -3.921503,-5.66964 8.126486,1.6064 4.441222,1.32291 z"
           id="path943"
           inkscape:connector-curvature="0" />
        <g
           id="g1592"
           style="stroke-width:1.5;stroke-miterlimit:4;stroke-dasharray:none">
          <path
             inkscape:connector-curvature="0"
             id="path1563"
             d="m 79.37905,154.14444 -8.285356,-0.93545 -4.810852,-0.66817 -13.630745,-4.67722"
             style="fill:none;fill-rule:evenodd;stroke:#000000;stroke-width:1.5;stroke-linecap:butt;stroke-linejoin:miter;stroke-opacity:1;stroke-miterlimit:4;stroke-dasharray:none" />
          <path
             inkscape:connector-curvature="0"
             id="path1565"
             d="m 71.561414,162.36297 -1.069078,-5.27857 1.670436,-3.74177"
             style="fill:none;fill-rule:evenodd;stroke:#000000;stroke-width:1.5;stroke-linecap:butt;stroke-linejoin:miter;stroke-opacity:1;stroke-miterlimit:4;stroke-dasharray:none" />
        </g>
        <g
           id="g1596"
           style="stroke-width:1.5;stroke-miterlimit:4;stroke-dasharray:none">
          <path
             inkscape:connector-curvature="0"
             id="path1567"
             d="m 138.57925,151.60537 11.09168,-4.40994 11.35896,-6.41447"
             style="fill:none;fill-rule:evenodd;stroke:#000000;stroke-width:1.5;stroke-linecap:butt;stroke-linejoin:miter;stroke-opacity:1;stroke-miterlimit:4;stroke-dasharray:none" />
          <path
             inkscape:connector-curvature="0"
             id="path1569"
             d="m 149.67093,147.19543 3.47451,1.60362 0.53454,4.40995 -2.6727,3.07359"
             style="fill:none;fill-rule:evenodd;stroke:#000000;stroke-width:1.5;stroke-linecap:butt;stroke-linejoin:miter;stroke-opacity:1;stroke-miterlimit:4;stroke-dasharray:none" />
        </g>
        <path
           style="fill:none;fill-rule:evenodd;stroke:#000000;stroke-width:1.5;stroke-linecap:butt;stroke-linejoin:miter;stroke-opacity:1;stroke-miterlimit:4;stroke-dasharray:none"
           d="m 102.6315,160.29164 2.93996,2.00452 4.00905,0.4009 3.4745,-1.46998"
           id="path1571"
           inkscape:connector-curvature="0" />
        <ellipse
           style="opacity:1;fill:#000000;fill-opacity:1;stroke:#000000;stroke-width:1.5213707;stroke-miterlimit:4;stroke-dasharray:none;stroke-dashoffset:0"
           id="path1573"
           cx="-19.089266"
           cy="-172.70598"
           rx="4.8701305"
           ry="5.8977509"
           transform="matrix(-0.97957277,0.20108999,-0.42524203,-0.90507967,0,0)" />
        <ellipse
           style="opacity:1;fill:#000000;fill-opacity:1;stroke:#000000;stroke-width:1.52137069;stroke-miterlimit:4;stroke-dasharray:none;stroke-dashoffset:0"
           id="path1573-3"
           cx="-202.22374"
           cy="65.397049"
           rx="4.870131"
           ry="5.8977509"
           transform="matrix(-0.34501216,-0.93859821,0.83149078,-0.55553855,0,0)" />
        <path
           style="fill:#de8787;fill-rule:evenodd;stroke:#000000;stroke-width:1.5;stroke-linecap:butt;stroke-linejoin:miter;stroke-miterlimit:4;stroke-dasharray:none;stroke-opacity:1"
           d="m 76.48541,124.95575 5.10268,-10.77232 7.18155,-9.26042 10.20536,-5.85863 8.50447,-2.83483 16.63095,0.56697 10.96131,3.2128 1.70089,5.10268 1.13393,14.55209 1.70089,3.96875 -10.77232,3.21279 -37.04167,0.56697 z"
           id="path880"
           inkscape:connector-curvature="0" />
        <path
           style="fill:#ffffff;fill-rule:evenodd;stroke:#000000;stroke-width:1.5;stroke-linecap:butt;stroke-linejoin:miter;stroke-miterlimit:4;stroke-dasharray:none;stroke-opacity:1"
           d="m 71.76071,124.95575 20.03274,2.45685 37.04167,-0.56697 10.77232,-3.21279 v 0 0 0 l 3.16555,-1.41742 0.14175,21.63914 H 67.88646 Z"
           id="path882"
           inkscape:connector-curvature="0" />
        <path
           style="fill:#de8787;fill-rule:evenodd;stroke:#000000;stroke-width:1.5;stroke-linecap:butt;stroke-linejoin:miter;stroke-miterlimit:4;stroke-dasharray:none;stroke-opacity:1"
           d="m 135.07173,100.00932 1.70089,5.10268 1.0647,2.70286 12.02713,-4.54358 z"
           id="path884"
           inkscape:connector-curvature="0" />
        <ellipse
           style="opacity:1;fill:#ffffff;fill-opacity:1;stroke:#000000;stroke-width:1.5;stroke-miterlimit:4;stroke-dasharray:none;stroke-dashoffset:0"
           id="path886"
           cx="154.72592"
           cy="101.51747"
           rx="4.7075467"
           ry="3.8503847" />
      </g>
      <g
         transform="translate(-188.13648,65.29897)"
         id="g6115">
        <circle
           style="color:#000000;fill:none;stroke:#ff0000;stroke-width:2.64587522"
           id="path12427-9-3-9"
           cx="259.89575"
           cy="126.08745"
           r="19.843773" />
        <circle
           style="color:#000000;fill:none;stroke:#ff0000;stroke-width:2.64578819"
           id="path12427-9-3-9-8-5"
           cx="259.89554"
           cy="126.08593"
           r="11.906169" />
        <circle
           style="color:#000000;fill:#ff0000;stroke:#ff0000;stroke-width:0.03207015"
           id="path12427-9-3-9-8-2-3"
           cx="259.89615"
           cy="126.08621"
           r="5.7927461" />
        <path
           inkscape:connector-curvature="0"
           style="fill:none;stroke:#ff0000;stroke-width:1.32291663;stroke-linecap:round"
           d="m 259.89835,102.94393 v 46.28885"
           id="path13189-0" />
        <path
           d="M 283.04939,126.08968 H 236.76054"
           inkscape:connector-curvature="0"
           style="fill:none;stroke:#ff0000;stroke-width:1.32291663;stroke-linecap:round"
           id="path45" />
      </g>
      <path
         inkscape:connector-curvature="0"
         id="path6117"
         d="m 93.811602,171.78423 2.099855,2.75148 6.614583,2.26786 4.78268,-1.81211 z"
         style="fill:#ffffff;fill-rule:evenodd;stroke:#000000;stroke-width:1;stroke-linecap:butt;stroke-linejoin:miter;stroke-opacity:1;stroke-miterlimit:4;stroke-dasharray:none" />
      <path
         sodipodi:nodetypes="ccccc"
         inkscape:connector-curvature="0"
         id="path6119"
         d="m 108.71188,174.99146 9.97478,-2.24887 -0.0966,3.21053 -2.45683,0.85045 -7.42131,-1.81211"
         style="fill:#ffffff;fill-rule:evenodd;stroke:#000000;stroke-width:1;stroke-linecap:butt;stroke-linejoin:miter;stroke-miterlimit:4;stroke-dasharray:none;stroke-opacity:1" />
    </g>
  </g>
</svg>
